<mxfile host="Electron" modified="2024-05-17T09:40:53.434Z" agent="Mozilla/5.0 (Windows NT 10.0; Win64; x64) AppleWebKit/537.36 (KHTML, like Gecko) draw.io/24.4.0 Chrome/120.0.6099.109 Electron/28.1.0 Safari/537.36" etag="Kwe2715HEYCb29E2FvU3" version="24.4.0" type="device">
  <diagram name="Страница — 1" id="BbJhXy07eGnsAdr8XJRf">
    <mxGraphModel dx="1434" dy="854" grid="1" gridSize="10" guides="1" tooltips="1" connect="1" arrows="1" fold="1" page="1" pageScale="1" pageWidth="827" pageHeight="1169" math="0" shadow="0">
      <root>
        <mxCell id="0" />
        <mxCell id="1" parent="0" />
        <mxCell id="rqpQ5a6BcR_GVlNUoB2x-27" style="edgeStyle=orthogonalEdgeStyle;rounded=0;orthogonalLoop=1;jettySize=auto;html=1;exitX=0.5;exitY=1;exitDx=0;exitDy=0;exitPerimeter=0;" edge="1" parent="1" source="rqpQ5a6BcR_GVlNUoB2x-25" target="rqpQ5a6BcR_GVlNUoB2x-26">
          <mxGeometry relative="1" as="geometry" />
        </mxCell>
        <mxCell id="rqpQ5a6BcR_GVlNUoB2x-25" value="Начало работы" style="strokeWidth=2;html=1;shape=mxgraph.flowchart.terminator;whiteSpace=wrap;" vertex="1" parent="1">
          <mxGeometry x="364" y="20" width="100" height="60" as="geometry" />
        </mxCell>
        <mxCell id="rqpQ5a6BcR_GVlNUoB2x-29" style="edgeStyle=orthogonalEdgeStyle;rounded=0;orthogonalLoop=1;jettySize=auto;html=1;exitX=0;exitY=0.5;exitDx=0;exitDy=0;entryX=0.5;entryY=0;entryDx=0;entryDy=0;" edge="1" parent="1" source="rqpQ5a6BcR_GVlNUoB2x-26" target="rqpQ5a6BcR_GVlNUoB2x-28">
          <mxGeometry relative="1" as="geometry" />
        </mxCell>
        <mxCell id="rqpQ5a6BcR_GVlNUoB2x-30" value="Нет" style="edgeLabel;html=1;align=center;verticalAlign=middle;resizable=0;points=[];" vertex="1" connectable="0" parent="rqpQ5a6BcR_GVlNUoB2x-29">
          <mxGeometry x="-0.8627" relative="1" as="geometry">
            <mxPoint as="offset" />
          </mxGeometry>
        </mxCell>
        <mxCell id="rqpQ5a6BcR_GVlNUoB2x-38" style="edgeStyle=orthogonalEdgeStyle;rounded=0;orthogonalLoop=1;jettySize=auto;html=1;exitX=1;exitY=0.5;exitDx=0;exitDy=0;entryX=0.5;entryY=0;entryDx=0;entryDy=0;" edge="1" parent="1" source="rqpQ5a6BcR_GVlNUoB2x-26" target="rqpQ5a6BcR_GVlNUoB2x-37">
          <mxGeometry relative="1" as="geometry" />
        </mxCell>
        <mxCell id="rqpQ5a6BcR_GVlNUoB2x-39" value="Да" style="edgeLabel;html=1;align=center;verticalAlign=middle;resizable=0;points=[];" vertex="1" connectable="0" parent="rqpQ5a6BcR_GVlNUoB2x-38">
          <mxGeometry x="-0.8921" y="3" relative="1" as="geometry">
            <mxPoint as="offset" />
          </mxGeometry>
        </mxCell>
        <mxCell id="rqpQ5a6BcR_GVlNUoB2x-26" value="action == 1" style="rhombus;whiteSpace=wrap;html=1;" vertex="1" parent="1">
          <mxGeometry x="359" y="100" width="110" height="80" as="geometry" />
        </mxCell>
        <mxCell id="rqpQ5a6BcR_GVlNUoB2x-34" style="edgeStyle=orthogonalEdgeStyle;rounded=0;orthogonalLoop=1;jettySize=auto;html=1;exitX=1;exitY=0.5;exitDx=0;exitDy=0;entryX=0;entryY=0.5;entryDx=0;entryDy=0;" edge="1" parent="1" source="rqpQ5a6BcR_GVlNUoB2x-28" target="rqpQ5a6BcR_GVlNUoB2x-33">
          <mxGeometry relative="1" as="geometry" />
        </mxCell>
        <mxCell id="rqpQ5a6BcR_GVlNUoB2x-35" value="Да" style="edgeLabel;html=1;align=center;verticalAlign=middle;resizable=0;points=[];" vertex="1" connectable="0" parent="rqpQ5a6BcR_GVlNUoB2x-34">
          <mxGeometry x="-0.6905" y="-2" relative="1" as="geometry">
            <mxPoint as="offset" />
          </mxGeometry>
        </mxCell>
        <mxCell id="rqpQ5a6BcR_GVlNUoB2x-28" value="action == 2" style="rhombus;whiteSpace=wrap;html=1;" vertex="1" parent="1">
          <mxGeometry x="160" y="200" width="110" height="80" as="geometry" />
        </mxCell>
        <mxCell id="rqpQ5a6BcR_GVlNUoB2x-31" value="Ошибка Некорректный ввод" style="strokeWidth=2;html=1;shape=mxgraph.flowchart.terminator;whiteSpace=wrap;" vertex="1" parent="1">
          <mxGeometry x="30" y="280" width="100" height="60" as="geometry" />
        </mxCell>
        <mxCell id="rqpQ5a6BcR_GVlNUoB2x-32" style="edgeStyle=orthogonalEdgeStyle;rounded=0;orthogonalLoop=1;jettySize=auto;html=1;exitX=0;exitY=0.5;exitDx=0;exitDy=0;entryX=0.5;entryY=0;entryDx=0;entryDy=0;entryPerimeter=0;" edge="1" parent="1" source="rqpQ5a6BcR_GVlNUoB2x-28" target="rqpQ5a6BcR_GVlNUoB2x-31">
          <mxGeometry relative="1" as="geometry" />
        </mxCell>
        <mxCell id="rqpQ5a6BcR_GVlNUoB2x-36" value="Нет" style="edgeLabel;html=1;align=center;verticalAlign=middle;resizable=0;points=[];" vertex="1" connectable="0" parent="rqpQ5a6BcR_GVlNUoB2x-32">
          <mxGeometry x="-0.7833" y="-2" relative="1" as="geometry">
            <mxPoint as="offset" />
          </mxGeometry>
        </mxCell>
        <mxCell id="rqpQ5a6BcR_GVlNUoB2x-45" style="edgeStyle=orthogonalEdgeStyle;rounded=0;orthogonalLoop=1;jettySize=auto;html=1;exitX=0.5;exitY=1;exitDx=0;exitDy=0;" edge="1" parent="1" source="rqpQ5a6BcR_GVlNUoB2x-33" target="rqpQ5a6BcR_GVlNUoB2x-40">
          <mxGeometry relative="1" as="geometry" />
        </mxCell>
        <mxCell id="rqpQ5a6BcR_GVlNUoB2x-33" value="Ввод текста" style="shape=process;whiteSpace=wrap;html=1;backgroundOutline=1;" vertex="1" parent="1">
          <mxGeometry x="354" y="210" width="120" height="60" as="geometry" />
        </mxCell>
        <mxCell id="rqpQ5a6BcR_GVlNUoB2x-44" style="edgeStyle=orthogonalEdgeStyle;rounded=0;orthogonalLoop=1;jettySize=auto;html=1;exitX=0.5;exitY=1;exitDx=0;exitDy=0;" edge="1" parent="1" source="rqpQ5a6BcR_GVlNUoB2x-37" target="rqpQ5a6BcR_GVlNUoB2x-41">
          <mxGeometry relative="1" as="geometry" />
        </mxCell>
        <mxCell id="rqpQ5a6BcR_GVlNUoB2x-37" value="Ввод и обработка текста" style="shape=process;whiteSpace=wrap;html=1;backgroundOutline=1;" vertex="1" parent="1">
          <mxGeometry x="580" y="210" width="120" height="60" as="geometry" />
        </mxCell>
        <mxCell id="rqpQ5a6BcR_GVlNUoB2x-51" style="edgeStyle=orthogonalEdgeStyle;rounded=0;orthogonalLoop=1;jettySize=auto;html=1;exitX=0.5;exitY=1;exitDx=0;exitDy=0;entryX=0.5;entryY=0;entryDx=0;entryDy=0;" edge="1" parent="1" source="rqpQ5a6BcR_GVlNUoB2x-40" target="rqpQ5a6BcR_GVlNUoB2x-49">
          <mxGeometry relative="1" as="geometry" />
        </mxCell>
        <mxCell id="rqpQ5a6BcR_GVlNUoB2x-40" value="Расшифрование" style="shape=process;whiteSpace=wrap;html=1;backgroundOutline=1;" vertex="1" parent="1">
          <mxGeometry x="354" y="300" width="120" height="60" as="geometry" />
        </mxCell>
        <mxCell id="rqpQ5a6BcR_GVlNUoB2x-46" style="edgeStyle=orthogonalEdgeStyle;rounded=0;orthogonalLoop=1;jettySize=auto;html=1;exitX=0.5;exitY=1;exitDx=0;exitDy=0;entryX=0.5;entryY=0;entryDx=0;entryDy=0;" edge="1" parent="1" source="rqpQ5a6BcR_GVlNUoB2x-41" target="rqpQ5a6BcR_GVlNUoB2x-43">
          <mxGeometry relative="1" as="geometry" />
        </mxCell>
        <mxCell id="rqpQ5a6BcR_GVlNUoB2x-41" value="Шифрование" style="shape=process;whiteSpace=wrap;html=1;backgroundOutline=1;" vertex="1" parent="1">
          <mxGeometry x="580" y="300" width="120" height="60" as="geometry" />
        </mxCell>
        <mxCell id="rqpQ5a6BcR_GVlNUoB2x-48" style="edgeStyle=orthogonalEdgeStyle;rounded=0;orthogonalLoop=1;jettySize=auto;html=1;exitX=0.5;exitY=1;exitDx=0;exitDy=0;entryX=0.5;entryY=0;entryDx=0;entryDy=0;" edge="1" parent="1" source="rqpQ5a6BcR_GVlNUoB2x-43" target="rqpQ5a6BcR_GVlNUoB2x-47">
          <mxGeometry relative="1" as="geometry" />
        </mxCell>
        <mxCell id="rqpQ5a6BcR_GVlNUoB2x-43" value="&lt;strong&gt;Получение&lt;/strong&gt;: &lt;code&gt;element&lt;/code&gt; = текущий символ открытого текста" style="rounded=0;whiteSpace=wrap;html=1;" vertex="1" parent="1">
          <mxGeometry x="580" y="390" width="120" height="60" as="geometry" />
        </mxCell>
        <mxCell id="rqpQ5a6BcR_GVlNUoB2x-54" style="edgeStyle=orthogonalEdgeStyle;rounded=0;orthogonalLoop=1;jettySize=auto;html=1;exitX=0.5;exitY=1;exitDx=0;exitDy=0;entryX=0.5;entryY=0;entryDx=0;entryDy=0;" edge="1" parent="1" source="rqpQ5a6BcR_GVlNUoB2x-47" target="rqpQ5a6BcR_GVlNUoB2x-53">
          <mxGeometry relative="1" as="geometry" />
        </mxCell>
        <mxCell id="rqpQ5a6BcR_GVlNUoB2x-47" value="индекс зашифрованного символа = (индекс &lt;code&gt;element&lt;/code&gt; + индекс соответствующего символа ключевого слова) % длина алфавита" style="rounded=0;whiteSpace=wrap;html=1;" vertex="1" parent="1">
          <mxGeometry x="555" y="480" width="175" height="90" as="geometry" />
        </mxCell>
        <mxCell id="rqpQ5a6BcR_GVlNUoB2x-52" style="edgeStyle=orthogonalEdgeStyle;rounded=0;orthogonalLoop=1;jettySize=auto;html=1;exitX=0.5;exitY=1;exitDx=0;exitDy=0;entryX=0.5;entryY=0;entryDx=0;entryDy=0;" edge="1" parent="1" source="rqpQ5a6BcR_GVlNUoB2x-49" target="rqpQ5a6BcR_GVlNUoB2x-50">
          <mxGeometry relative="1" as="geometry" />
        </mxCell>
        <mxCell id="rqpQ5a6BcR_GVlNUoB2x-49" value="&lt;strong&gt;Получение&lt;/strong&gt;: &lt;code&gt;element&lt;/code&gt; = текущий символ шифртекста" style="rounded=0;whiteSpace=wrap;html=1;" vertex="1" parent="1">
          <mxGeometry x="354" y="390" width="120" height="60" as="geometry" />
        </mxCell>
        <mxCell id="rqpQ5a6BcR_GVlNUoB2x-55" style="edgeStyle=orthogonalEdgeStyle;rounded=0;orthogonalLoop=1;jettySize=auto;html=1;exitX=0.5;exitY=1;exitDx=0;exitDy=0;entryX=0.5;entryY=0;entryDx=0;entryDy=0;" edge="1" parent="1" source="rqpQ5a6BcR_GVlNUoB2x-50" target="rqpQ5a6BcR_GVlNUoB2x-53">
          <mxGeometry relative="1" as="geometry" />
        </mxCell>
        <mxCell id="rqpQ5a6BcR_GVlNUoB2x-50" value="индекс расшифрованного символа = (индекс &lt;code&gt;element&lt;/code&gt; - индекс соответствующего символа ключевого слова + длина алфавита) % длина алфавита" style="rounded=0;whiteSpace=wrap;html=1;" vertex="1" parent="1">
          <mxGeometry x="331" y="480" width="169" height="90" as="geometry" />
        </mxCell>
        <mxCell id="rqpQ5a6BcR_GVlNUoB2x-53" value="Вывод результата работы алгоритма" style="shape=parallelogram;perimeter=parallelogramPerimeter;whiteSpace=wrap;html=1;fixedSize=1;" vertex="1" parent="1">
          <mxGeometry x="464" y="640" width="136" height="60" as="geometry" />
        </mxCell>
        <mxCell id="rqpQ5a6BcR_GVlNUoB2x-56" value="Конец работы" style="strokeWidth=2;html=1;shape=mxgraph.flowchart.terminator;whiteSpace=wrap;" vertex="1" parent="1">
          <mxGeometry x="483" y="730" width="98" height="30" as="geometry" />
        </mxCell>
        <mxCell id="rqpQ5a6BcR_GVlNUoB2x-57" style="edgeStyle=orthogonalEdgeStyle;rounded=0;orthogonalLoop=1;jettySize=auto;html=1;exitX=0.5;exitY=1;exitDx=0;exitDy=0;entryX=0.5;entryY=0;entryDx=0;entryDy=0;entryPerimeter=0;" edge="1" parent="1" source="rqpQ5a6BcR_GVlNUoB2x-53" target="rqpQ5a6BcR_GVlNUoB2x-56">
          <mxGeometry relative="1" as="geometry" />
        </mxCell>
      </root>
    </mxGraphModel>
  </diagram>
</mxfile>
